# Blender v2.90.1 OBJ File: ''
# www.blender.org
v 0.005173 0.003525 0.063538
v 0.023932 0.003525 0.005912
v -0.036068 0.000772 0.063538
v -0.036068 0.000772 -0.008572
v -0.001972 0.000698 -0.010489
v -0.001972 0.000698 0.014539
v -0.001797 0.001026 -0.010489
v -0.001797 0.001026 0.014539
v -0.001562 0.001313 -0.010489
v -0.001562 0.001313 0.014539
v -0.001275 0.001549 -0.010489
v -0.001275 0.001549 0.014539
v -0.000947 0.001724 -0.010489
v -0.000947 0.001724 0.014539
v -0.000592 0.001831 -0.010489
v -0.000592 0.001831 0.014539
v -0.000222 0.001868 -0.010489
v -0.000222 0.001868 0.014539
v 0.000147 0.001831 -0.010489
v 0.000147 0.001831 0.014539
v 0.000503 0.001724 -0.010489
v 0.000503 0.001724 0.014539
v 0.000830 0.001549 -0.010489
v 0.000830 0.001549 0.014539
v 0.001117 0.001313 -0.010489
v 0.001117 0.001313 0.014539
v 0.001353 0.001026 -0.010489
v 0.001353 0.001026 0.014539
v 0.001528 0.000698 -0.010489
v 0.001528 0.000698 0.014539
v 0.006950 0.000000 0.063538
v 0.025708 0.000000 0.005912
v -0.036068 -0.000000 0.063538
v -0.036068 -0.000000 -0.008572
v 0.005173 -0.003525 0.063538
v 0.023932 -0.003525 0.005912
v -0.036068 -0.000772 0.063538
v -0.036068 -0.000772 -0.008572
v -0.002080 0.000000 -0.010489
v -0.002080 0.000000 0.014539
v -0.001972 -0.000698 -0.010489
v -0.001972 -0.000698 0.014539
v -0.001797 -0.001026 -0.010489
v -0.001797 -0.001026 0.014539
v -0.001562 -0.001313 -0.010489
v -0.001562 -0.001313 0.014539
v -0.001275 -0.001549 -0.010489
v -0.001275 -0.001549 0.014539
v -0.000947 -0.001724 -0.010489
v -0.000947 -0.001724 0.014539
v -0.000592 -0.001831 -0.010489
v -0.000592 -0.001831 0.014539
v -0.000222 -0.001868 -0.010489
v -0.000222 -0.001868 0.014539
v 0.000147 -0.001831 -0.010489
v 0.000147 -0.001831 0.014539
v 0.000503 -0.001724 -0.010489
v 0.000503 -0.001724 0.014539
v 0.000830 -0.001549 -0.010489
v 0.000830 -0.001549 0.014539
v 0.001117 -0.001313 -0.010489
v 0.001117 -0.001313 0.014539
v 0.001353 -0.001026 -0.010489
v 0.001353 -0.001026 0.014539
v 0.001528 -0.000698 -0.010489
v 0.001528 -0.000698 0.014539
v 0.001636 0.000000 -0.010489
v 0.001636 0.000000 0.014539
vn -0.0666 0.9978 0.0000
vn 0.8575 0.4323 0.2791
vn 0.2268 0.1143 -0.9672
vn -0.0000 0.0000 1.0000
vn -1.0000 0.0000 0.0000
vn -0.9883 0.1525 0.0000
vn -0.8819 0.4715 -0.0000
vn -0.7730 0.6345 0.0000
vn -0.6345 0.7730 -0.0000
vn -0.4714 0.8819 0.0000
vn -0.2902 0.9570 0.0000
vn -0.0981 0.9952 -0.0000
vn 0.0981 0.9952 0.0000
vn 0.2902 0.9570 -0.0000
vn 0.4714 0.8819 0.0000
vn 0.6345 0.7730 0.0000
vn 0.7730 0.6344 -0.0000
vn 0.8819 0.4715 0.0000
vn 0.9883 0.1526 0.0000
vn -0.0000 1.0000 0.0000
vn -0.0425 -0.9990 -0.0138
vn 0.8575 -0.4323 0.2791
vn 0.2268 -0.1143 -0.9672
vn -0.9883 -0.1525 0.0000
vn -0.8819 -0.4715 -0.0000
vn -0.7730 -0.6345 0.0000
vn -0.6345 -0.7730 -0.0000
vn -0.4714 -0.8819 0.0000
vn -0.2902 -0.9570 0.0000
vn -0.0981 -0.9952 -0.0000
vn 0.0981 -0.9952 0.0000
vn 0.2902 -0.9570 -0.0000
vn 0.4714 -0.8819 0.0000
vn 0.6345 -0.7730 0.0000
vn 0.7730 -0.6344 -0.0000
vn 0.8819 -0.4715 0.0000
vn 0.9883 -0.1526 -0.0000
vn -0.0425 0.9990 -0.0138
vn 0.2347 0.0000 -0.9721
vn -0.7730 0.6344 -0.0000
vn -0.6344 0.7730 0.0000
vn -0.2904 0.9569 -0.0000
vn -0.0979 0.9952 0.0000
vn 0.0979 0.9952 -0.0000
vn 0.2904 0.9569 0.0000
vn 0.6344 0.7730 -0.0000
vn 0.7731 0.6343 0.0000
vn -0.0666 -0.9978 0.0000
vn -0.7730 -0.6344 -0.0000
vn -0.6344 -0.7730 0.0000
vn -0.2904 -0.9569 -0.0000
vn -0.0979 -0.9952 0.0000
vn 0.0979 -0.9952 -0.0000
vn 0.2904 -0.9569 0.0000
vn 0.6344 -0.7730 -0.0000
vn 0.7731 -0.6343 0.0000
s off
f 1//1 4//1 3//1
f 31//2 2//2 1//2
f 34//3 2//3 32//3
f 33//4 1//4 3//4
f 33//5 4//5 34//5
f 40//6 5//6 39//6
f 6//7 7//7 5//7
f 8//8 9//8 7//8
f 10//9 11//9 9//9
f 12//10 13//10 11//10
f 14//11 15//11 13//11
f 16//12 17//12 15//12
f 18//13 19//13 17//13
f 20//14 21//14 19//14
f 22//15 23//15 21//15
f 24//16 25//16 23//16
f 26//17 27//17 25//17
f 28//18 29//18 27//18
f 29//19 68//19 67//19
f 31//20 34//20 33//20
f 35//21 38//21 36//21
f 31//22 36//22 32//22
f 36//23 34//23 32//23
f 33//4 35//4 31//4
f 38//5 33//5 34//5
f 41//24 40//24 39//24
f 43//25 42//25 41//25
f 45//26 44//26 43//26
f 47//27 46//27 45//27
f 49//28 48//28 47//28
f 51//29 50//29 49//29
f 53//30 52//30 51//30
f 55//31 54//31 53//31
f 57//32 56//32 55//32
f 59//33 58//33 57//33
f 61//34 60//34 59//34
f 63//35 62//35 61//35
f 65//36 64//36 63//36
f 65//37 68//37 66//37
f 1//38 2//38 4//38
f 31//2 32//2 2//2
f 34//39 4//39 2//39
f 33//4 31//4 1//4
f 33//5 3//5 4//5
f 40//6 6//6 5//6
f 6//7 8//7 7//7
f 8//40 10//40 9//40
f 10//41 12//41 11//41
f 12//10 14//10 13//10
f 14//42 16//42 15//42
f 16//43 18//43 17//43
f 18//44 20//44 19//44
f 20//45 22//45 21//45
f 22//15 24//15 23//15
f 24//46 26//46 25//46
f 26//47 28//47 27//47
f 28//18 30//18 29//18
f 29//19 30//19 68//19
f 31//20 32//20 34//20
f 35//48 37//48 38//48
f 31//22 35//22 36//22
f 36//39 38//39 34//39
f 33//4 37//4 35//4
f 38//5 37//5 33//5
f 41//24 42//24 40//24
f 43//25 44//25 42//25
f 45//49 46//49 44//49
f 47//50 48//50 46//50
f 49//28 50//28 48//28
f 51//51 52//51 50//51
f 53//52 54//52 52//52
f 55//53 56//53 54//53
f 57//54 58//54 56//54
f 59//33 60//33 58//33
f 61//55 62//55 60//55
f 63//56 64//56 62//56
f 65//36 66//36 64//36
f 65//37 67//37 68//37
